:SAMPLES-PER-SECOND 30
:FULLY-SPECIFIED
:DEGREES
245
root  -41.3406 34.48 24.9213 -178.154 61.9523 179.095
RightUpLeg  -5.97383 -14.7253 -2.32745
RightLeg  18.1007 -5.60155 -1.43771
RightFoot  -2.55836 -0.00407592 0.431764
RightToes  -24.9821 -0.119507 -0.216495
Spine  -0.413037 -1.54849 0.621826
Spine1  -0.679487 -2.83582 1.59882
HEad  -71.637 8.15647 1.6632
LeftShoulder1  -1.94126e-019 -3.10601e-018 -2.51263e-017
LeftArm  -33.0655 3.01258 -50.9689
LeftForeArm  53.7268 -75.2967 -39.7615
LeftHand  -0.879776 -2.27046 13.5122
RightShoulder  -4.96962e-017 0 -2.36833e-017
RightArm  -30.9636 -22.8907 74.2377
RightForeArm  53.2029 13.251 1.38591
RightHand  -0.347463 -1.96094 -11.567
LeftUpLeg  -11.2857 10.9133 9.61543
LeftLeg  28.349 9.60811 4.37914
LeftFoot  9.79398 -0.155747 1.97922
LeftToes  -39.6862 2.32378e-006 -5.43956e-008
246
root  -41.437 34.4091 25.1215 -177.025 61.4796 -179.242
RightUpLeg  -6.06544 -15.4615 -1.42916
RightLeg  18.5703 -5.29371 -1.40553
RightFoot  -2.83166 -0.00356165 0.444375
RightToes  -25.0528 -0.119321 -0.215057
Spine  -0.0478539 -1.52106 0.419064
Spine1  0.0357684 -2.79722 1.20146
HEad  -72.3161 7.17056 1.92746
LeftShoulder1  -1.94126e-019 -3.10601e-018 -2.51263e-017
LeftArm  -35.0957 1.27766 -51.8996
LeftForeArm  40.1223 -69.7142 -27.1416
LeftHand  -0.87857 -1.26589 15.4458
RightShoulder  -4.96962e-017 0 -2.36833e-017
RightArm  -27.9507 -22.7086 74.7584
RightForeArm  50.2989 14.7445 1.27201
RightHand  -0.339097 -1.9404 -11.2164
LeftUpLeg  -11.4801 12.2444 10.7216
LeftLeg  28.2768 9.31004 4.23082
LeftFoot  8.74312 -0.120209 1.73391
LeftToes  -38.2889 2.32378e-006 -5.43956e-008
247
root  -41.5691 34.3223 25.2993 -175.836 60.6331 -177.747
RightUpLeg  -6.60892 -16.7258 -0.567988
RightLeg  19.4676 -4.9974 -1.41162
RightFoot  -3.28216 -0.00316595 0.473978
RightToes  -25.0391 -0.119231 -0.213704
Spine  0.209754 -1.55583 0.271901
Spine1  0.527185 -2.89791 0.949754
HEad  -72.7928 5.91928 1.93428
LeftShoulder1  -1.94126e-019 -3.10601e-018 -2.51263e-017
LeftArm  -35.8349 0.0857258 -53.0759
LeftForeArm  30.3835 -62.5597 -19.1113
LeftHand  -0.799075 -0.4456 15.9758
RightShoulder  -4.96962e-017 0 -2.36833e-017
RightArm  -25.234 -22.7321 74.7391
RightForeArm  48.9549 16.1868 1.24052
RightHand  -0.362381 -1.64158 -11.0792
LeftUpLeg  -11.4403 12.0694 11.4819
LeftLeg  26.1578 10.6545 4.37029
LeftFoot  6.86253 -0.0833638 1.55184
LeftToes  -34.6621 2.32378e-006 -5.43956e-008
248
root  -41.7386 34.2555 25.4356 -174.908 59.3311 -176.749
RightUpLeg  -7.23761 -17.3182 0.106967
RightLeg  20.2912 -5.36578 -1.59903
RightFoot  -3.65244 -0.000911095 0.540147
RightToes  -24.7252 -0.119254 -0.212647
Spine  0.512601 -1.625 0.0761345
Spine1  1.10168 -3.07609 0.602975
HEad  -73.4657 4.65669 1.87837
LeftShoulder1  -1.94126e-019 -3.10601e-018 -2.51263e-017
LeftArm  -34.5981 -0.518449 -54.5278
LeftForeArm  26.1438 -54.7486 -13.8129
LeftHand  -0.694419 -0.214086 14.4644
RightShoulder  -4.96962e-017 0 -2.36833e-017
RightArm  -24.0452 -22.4624 74.6912
RightForeArm  48.9878 17.058 1.30503
RightHand  -0.376839 -1.55835 -11.2879
LeftUpLeg  -11.4163 10.0754 11.7645
LeftLeg  22.925 12.633 4.36258
LeftFoot  5.68701 -0.0663131 1.49659
LeftToes  -31.4948 2.32378e-006 -5.43956e-008
249
root  -41.9361 34.2016 25.5166 -174.028 57.8953 -176.08
RightUpLeg  -8.07422 -17.9596 0.684426
RightLeg  20.9282 -6.06609 -1.88028
RightFoot  -3.80918 0.000744757 0.612075
RightToes  -24.6988 -0.119402 -0.212097
Spine  0.720915 -1.70098 -0.185626
Spine1  1.48445 -3.26557 0.117027
HEad  -73.6738 3.82069 1.66337
LeftShoulder1  -1.94126e-019 -3.10601e-018 -2.51263e-017
LeftArm  -30.4768 0.279089 -56.0468
LeftForeArm  24.1032 -47.8668 -10.6455
LeftHand  -0.694816 -0.42153 13.9737
RightShoulder  -4.96962e-017 0 -2.36833e-017
RightArm  -23.8161 -22.0327 74.7885
RightForeArm  48.959 17.0593 1.30638
RightHand  -0.373155 -1.6965 -11.5789
LeftUpLeg  -12.2211 7.40682 11.839
LeftLeg  22.4635 13.767 4.62355
LeftFoot  5.58748 -0.0693683 1.58301
LeftToes  -31.0615 2.32378e-006 -5.43956e-008
250
root  -42.1703 34.2055 25.5637 -173.119 56.7409 -175.761
RightUpLeg  -9.01055 -18.324 1.13574
RightLeg  20.921 -6.76016 -2.09295
RightFoot  -3.53292 0.00110001 0.631072
RightToes  -24.5371 -0.11969 -0.212263
Spine  0.847086 -1.61016 -0.51982
Spine1  1.70764 -3.11947 -0.506674
HEad  -73.3128 3.32914 1.08794
LeftShoulder1  -1.94126e-019 -3.10601e-018 -2.51263e-017
LeftArm  -25.2046 2.44765 -58.3691
LeftForeArm  23.2918 -42.0976 -8.57237
LeftHand  -0.612028 -0.74248 11.7077
RightShoulder  -4.96962e-017 0 -2.36833e-017
RightArm  -25.1756 -21.5079 75.2409
RightForeArm  49.3176 16.2575 1.22962
RightHand  -0.362895 -1.86654 -11.7791
LeftUpLeg  -14.0414 5.72191 11.7614
LeftLeg  23.4042 14.2666 5.04535
LeftFoot  5.84809 -0.0764547 1.7083
LeftToes  -29.9072 2.32378e-006 -5.43956e-008
251
root  -42.4215 34.2288 25.599 -171.742 56.0575 -174.994
RightUpLeg  -9.75406 -18.3304 1.79959
RightLeg  20.2002 -7.30373 -2.15958
RightFoot  -2.82351 -0.000791681 0.570787
RightToes  -24.8167 -0.120134 -0.214377
Spine  0.934307 -1.2856 -0.870065
Spine1  1.86529 -2.49004 -1.17468
HEad  -72.5141 3.24204 0.62153
LeftShoulder1  -1.94126e-019 -3.10601e-018 -2.51263e-017
LeftArm  -21.4631 5.5592 -61.5465
LeftForeArm  23.7071 -37.1698 -7.03889
LeftHand  -0.587073 -1.62392 9.88912
RightShoulder  -4.96962e-017 0 -2.36833e-017
RightArm  -27.0604 -21.1796 75.9789
RightForeArm  49.8252 15.3402 1.23684
RightHand  -0.34009 -2.05554 -11.6262
LeftUpLeg  -15.7174 6.29826 11.9779
LeftLeg  23.9879 13.1612 4.81255
LeftFoot  6.14411 -0.0721989 1.65508
LeftToes  -30.1766 2.32378e-006 -5.43956e-008
252
root  -42.6949 34.248 25.5767 -170.228 55.5316 -174.214
RightUpLeg  -10.5988 -18.3729 2.38774
RightLeg  19.4192 -7.65179 -2.14873
RightFoot  -2.01591 -0.00244957 0.474242
RightToes  -25.7932 -0.120747 -0.221691
Spine  1.02601 -0.83236 -1.15313
Spine1  2.03243 -1.60299 -1.70157
HEad  -71.4111 3.30326 -0.539708
LeftShoulder1  -1.94126e-019 -3.10601e-018 -2.51263e-017
LeftArm  -20.7932 9.55825 -65.7017
LeftForeArm  22.6646 -32.326 -5.81116
LeftHand  -0.513481 -1.78679 8.48765
RightShoulder  -4.96962e-017 0 -2.36833e-017
RightArm  -28.0459 -21.2731 76.508
RightForeArm  50.4684 15.0213 1.2437
RightHand  -0.351676 -1.97864 -11.7696
LeftUpLeg  -17.4364 7.60996 12.0197
LeftLeg  24.5076 11.6886 4.40308
LeftFoot  6.114 -0.0597597 1.47239
LeftToes  -30.0643 2.32378e-006 -5.43956e-008
253
root  -42.9828 34.2627 25.4651 -169.503 54.7189 -174.105
RightUpLeg  -11.3287 -18.6586 2.39522
RightLeg  19.1053 -8.03785 -2.20879
RightFoot  -1.43596 -0.00276532 0.408517
RightToes  -26.6498 -0.121545 -0.22802
Spine  1.30036 -0.511657 -1.41514
Spine1  2.56421 -0.985502 -2.15651
HEad  -70.2915 3.8815 -2.53821
LeftShoulder1  -1.94126e-019 -3.10601e-018 -2.51263e-017
LeftArm  -21.2262 13.5988 -69.9052
LeftForeArm  19.8894 -25.8834 -4.45002
LeftHand  -0.46634 -1.48598 8.03943
RightShoulder  -4.96962e-017 0 -2.36833e-017
RightArm  -27.1006 -21.3693 76.7373
RightForeArm  49.7666 15.5733 1.22588
RightHand  -0.313628 -2.37805 -11.8054
LeftUpLeg  -18.7223 7.97579 11.5358
LeftLeg  24.5912 10.9131 4.13342
LeftFoot  6.03707 -0.0523292 1.36526
LeftToes  -29.0924 2.32378e-006 -5.43956e-008
254
root  -43.2848 34.256 25.2957 -168.966 53.538 -174.381
RightUpLeg  -12.4143 -19.442 2.1859
RightLeg  19.369 -8.39997 -2.34892
RightFoot  -1.19925 -0.00382297 0.39004
RightToes  -26.9437 -0.123451 -0.230173
Spine  1.51205 -0.254826 -1.63796
Spine1  2.98275 -0.472342 -2.55221
HEad  -68.3021 4.77277 -4.76126
LeftShoulder1  -1.94126e-019 -3.10601e-018 -2.51263e-017
LeftArm  -23.8267 17.5336 -73.9568
LeftForeArm  19.7629 -18.2788 -3.02246
LeftHand  -0.403789 -0.924088 7.55567
RightShoulder  -4.96962e-017 0 -2.36833e-017
RightArm  -26.6799 -21.517 76.7802
RightForeArm  49.7526 16.0925 1.21342
RightHand  -0.365242 -1.84847 -11.7984
LeftUpLeg  -20.0966 7.39741 10.7832
LeftLeg  24.5598 10.7065 4.04964
LeftFoot  5.9693 -0.0497804 1.33163
LeftToes  -28.2277 2.32378e-006 -5.43956e-008
255
root  -43.5798 34.2038 25.1269 -168.006 51.9097 -174.348
RightUpLeg  -13.8124 -20.6063 2.27912
RightLeg  20.0139 -8.73421 -2.54751
RightFoot  -1.06195 -0.00476997 0.387147
RightToes  -27.5604 -0.127487 -0.234657
Spine  1.65007 -0.14346 -1.85222
Spine1  3.25925 -0.188708 -3.00389
HEad  -64.8699 6.10761 -6.47834
LeftShoulder1  -1.94126e-019 -3.10601e-018 -2.51263e-017
LeftArm  -28.2841 21.7873 -76.8944
LeftForeArm  21.5269 -12.7965 -2.17922
LeftHand  -0.392081 -0.456489 7.88528
RightShoulder  -4.96962e-017 0 -2.36833e-017
RightArm  -27.0223 -21.646 77.4128
RightForeArm  50.1509 16.6469 1.21758
RightHand  -0.38338 -1.71706 -11.9666
LeftUpLeg  -22.3012 6.15807 10.329
LeftLeg  25.6606 10.4801 4.19489
LeftFoot  5.6386 -0.0444297 1.25199
LeftToes  -27.9305 2.32378e-006 -5.43956e-008
256
root  -43.8629 34.1458 24.9314 -167.168 50.024 -174.311
RightUpLeg  -14.9181 -22.1435 2.34208
RightLeg  20.4856 -8.94249 -2.68747
RightFoot  -0.858487 -0.00471501 0.375971
RightToes  -28.491 -0.133669 -0.241342
Spine  1.6918 0.355634 -1.8829
Spine1  3.37065 0.961583 -3.17269
HEad  -60.6625 7.06009 -8.1895
LeftShoulder1  -1.94126e-019 -3.10601e-018 -2.51263e-017
LeftArm  -32.9762 26.0887 -79.292
LeftForeArm  23.5065 -9.53324 -1.674
LeftHand  -0.395469 0.239374 8.96062
RightShoulder  -4.96962e-017 0 -2.36833e-017
RightArm  -28.2616 -22.7242 77.8272
RightForeArm  49.8268 17.9467 1.4323
RightHand  -0.371731 -1.90733 -12.2094
LeftUpLeg  -24.609 4.57695 9.97363
LeftLeg  27.1987 10.3185 4.453
LeftFoot  5.19943 -0.0397618 1.18045
LeftToes  -27.581 2.32378e-006 -5.43956e-008
257
root  -44.1201 34.1258 24.7129 -166.971 48.137 -174.772
RightUpLeg  -15.5484 -23.5081 1.96414
RightLeg  20.7495 -9.37012 -2.86142
RightFoot  -0.498651 -0.00310187 0.337432
RightToes  -29.4826 -0.140374 -0.248354
Spine  1.8399 1.02523 -1.98964
Spine1  3.70107 2.50556 -3.57257
HEad  -57.6006 7.68848 -9.21704
LeftShoulder1  -1.94126e-019 -3.10601e-018 -2.51263e-017
LeftArm  -35.9221 30.1261 -80.3337
LeftForeArm  24.3433 -7.29891 -1.2745
LeftHand  -0.422343 0.762525 10.6
RightShoulder  -4.96962e-017 0 -2.36833e-017
RightArm  -29.7955 -23.5088 78.5609
RightForeArm  48.9132 18.6889 1.60683
RightHand  -0.379722 -1.77391 -12.0306
LeftUpLeg  -26.0376 3.82623 9.2187
LeftLeg  27.5967 9.35675 4.11962
LeftFoot  4.99535 -0.0332084 1.077
LeftToes  -27.1142 2.32378e-006 -5.43956e-008
258
root  -44.3564 34.1275 24.4759 -166.959 46.3116 -175.335
RightUpLeg  -15.8453 -24.6899 1.43183
RightLeg  20.7558 -9.9753 -3.04498
RightFoot  -0.00437296 -0.000768453 0.272366
RightToes  -30.3184 -0.14612 -0.254173
Spine  1.89545 1.5918 -2.02049
Spine1  3.84737 3.84956 -3.83536
HEad  -55.6423 8.6276 -9.68934
LeftShoulder1  -1.94126e-019 -3.10601e-018 -2.51263e-017
LeftArm  -36.383 34.6029 -80.5401
LeftForeArm  24.1191 -6.57742 -1.14631
LeftHand  -0.427806 1.08857 11.5201
RightShoulder  -4.96962e-017 0 -2.36833e-017
RightArm  -29.5338 -24.0954 79.0233
RightForeArm  49.4853 19.1409 1.66737
RightHand  -0.393264 -1.72595 -12.3095
LeftUpLeg  -26.8574 3.6506 8.3119
LeftLeg  27.2205 7.76085 3.3625
LeftFoot  4.72708 -0.0229116 0.912698
LeftToes  -26.1028 2.32378e-006 -5.43956e-008
259
root  -44.6022 34.1459 24.2406 -166.669 44.3752 -176.045
RightUpLeg  -16.3487 -25.8329 0.959336
RightLeg  20.4419 -10.7487 -3.21359
RightFoot  0.549895 0.00123272 0.178181
RightToes  -30.6654 -0.149639 -0.256564
Spine  1.77923 2.07206 -2.12123
Spine1  3.62194 4.94564 -4.15794
HEad  -54.9824 9.06478 -9.52908
LeftShoulder1  -1.94126e-019 -3.10601e-018 -2.51263e-017
LeftArm  -36.1105 38.6362 -79.5803
LeftForeArm  25.3662 -6.37909 -1.11024
LeftHand  -0.446402 0.643026 10.9351
RightShoulder  -4.96962e-017 0 -2.36833e-017
RightArm  -28.7518 -24.6953 79.5444
RightForeArm  49.8348 19.5869 1.73439
RightHand  -0.398156 -1.52812 -11.8467
LeftUpLeg  -28.1101 2.84938 7.24905
LeftLeg  26.9593 7.0716 3.02768
LeftFoot  4.88594 -0.0221927 0.894537
LeftToes  -25.7559 2.32378e-006 -5.43956e-008
